<mxfile host="app.diagrams.net" modified="2024-07-02T00:56:01.276Z" agent="Mozilla/5.0 (Windows NT 10.0; Win64; x64) AppleWebKit/537.36 (KHTML, like Gecko) Chrome/126.0.0.0 Safari/537.36" etag="n1dPBBg7re8otkAScC1x" version="24.6.4" type="github">
  <diagram id="C5RBs43oDa-KdzZeNtuy" name="Page-1">
    <mxGraphModel dx="1239" dy="473" grid="1" gridSize="10" guides="1" tooltips="1" connect="1" arrows="1" fold="1" page="1" pageScale="1" pageWidth="827" pageHeight="1169" math="0" shadow="0">
      <root>
        <mxCell id="WIyWlLk6GJQsqaUBKTNV-0" />
        <mxCell id="WIyWlLk6GJQsqaUBKTNV-1" parent="WIyWlLk6GJQsqaUBKTNV-0" />
        <mxCell id="qJrFEpBAi07v0wmJlHiW-1" value="" style="endArrow=none;html=1;rounded=0;" edge="1" parent="WIyWlLk6GJQsqaUBKTNV-1">
          <mxGeometry width="50" height="50" relative="1" as="geometry">
            <mxPoint x="30" y="170" as="sourcePoint" />
            <mxPoint x="30" y="170" as="targetPoint" />
          </mxGeometry>
        </mxCell>
        <mxCell id="qJrFEpBAi07v0wmJlHiW-3" value="Hotel" style="swimlane;fontStyle=1;align=center;verticalAlign=top;childLayout=stackLayout;horizontal=1;startSize=26;horizontalStack=0;resizeParent=1;resizeParentMax=0;resizeLast=0;collapsible=1;marginBottom=0;whiteSpace=wrap;html=1;" vertex="1" parent="WIyWlLk6GJQsqaUBKTNV-1">
          <mxGeometry x="80" y="10" width="360" height="288" as="geometry" />
        </mxCell>
        <mxCell id="qJrFEpBAi07v0wmJlHiW-4" value="- name: String&lt;div&gt;- rooms: ArrayList&amp;lt;Room&amp;gt;&lt;/div&gt;&lt;div&gt;- bookingHistory: Stack&amp;lt;Reservation&amp;gt;&lt;/div&gt;&lt;div&gt;- reservations: Map&amp;lt;Integer, Reservation&amp;gt;&amp;nbsp;&lt;/div&gt;&lt;div&gt;- reservationCounter: int&lt;/div&gt;" style="text;strokeColor=none;fillColor=none;align=left;verticalAlign=top;spacingLeft=4;spacingRight=4;overflow=hidden;rotatable=0;points=[[0,0.5],[1,0.5]];portConstraint=eastwest;whiteSpace=wrap;html=1;" vertex="1" parent="qJrFEpBAi07v0wmJlHiW-3">
          <mxGeometry y="26" width="360" height="104" as="geometry" />
        </mxCell>
        <mxCell id="qJrFEpBAi07v0wmJlHiW-5" value="" style="line;strokeWidth=1;fillColor=none;align=left;verticalAlign=middle;spacingTop=-1;spacingLeft=3;spacingRight=3;rotatable=0;labelPosition=right;points=[];portConstraint=eastwest;strokeColor=inherit;" vertex="1" parent="qJrFEpBAi07v0wmJlHiW-3">
          <mxGeometry y="130" width="360" height="8" as="geometry" />
        </mxCell>
        <mxCell id="qJrFEpBAi07v0wmJlHiW-6" value="+ Hotel(name: String)&lt;div&gt;- initializeRooms(): void&lt;/div&gt;&lt;div&gt;+ bookRoom(scanner: Scanner): void&lt;/div&gt;&lt;div&gt;+ cancelReservation(scanner: Scanner); void&lt;/div&gt;&lt;div&gt;+ viewBookingHistory(): void&lt;/div&gt;&lt;div&gt;&lt;br&gt;&lt;/div&gt;" style="text;strokeColor=none;fillColor=none;align=left;verticalAlign=top;spacingLeft=4;spacingRight=4;overflow=hidden;rotatable=0;points=[[0,0.5],[1,0.5]];portConstraint=eastwest;whiteSpace=wrap;html=1;" vertex="1" parent="qJrFEpBAi07v0wmJlHiW-3">
          <mxGeometry y="138" width="360" height="150" as="geometry" />
        </mxCell>
        <mxCell id="qJrFEpBAi07v0wmJlHiW-15" value="Room&lt;span style=&quot;white-space: pre;&quot;&gt;&#x9;&lt;/span&gt;" style="swimlane;fontStyle=1;align=center;verticalAlign=top;childLayout=stackLayout;horizontal=1;startSize=26;horizontalStack=0;resizeParent=1;resizeParentMax=0;resizeLast=0;collapsible=1;marginBottom=0;whiteSpace=wrap;html=1;" vertex="1" parent="WIyWlLk6GJQsqaUBKTNV-1">
          <mxGeometry x="500" y="20" width="320" height="218" as="geometry" />
        </mxCell>
        <mxCell id="qJrFEpBAi07v0wmJlHiW-16" value="- roomNumber: int&lt;div&gt;- type: String&lt;/div&gt;&lt;div&gt;- rate: double&lt;/div&gt;&lt;div&gt;- isAvailable: boolean&lt;/div&gt;" style="text;strokeColor=none;fillColor=none;align=left;verticalAlign=top;spacingLeft=4;spacingRight=4;overflow=hidden;rotatable=0;points=[[0,0.5],[1,0.5]];portConstraint=eastwest;whiteSpace=wrap;html=1;" vertex="1" parent="qJrFEpBAi07v0wmJlHiW-15">
          <mxGeometry y="26" width="320" height="84" as="geometry" />
        </mxCell>
        <mxCell id="qJrFEpBAi07v0wmJlHiW-17" value="" style="line;strokeWidth=1;fillColor=none;align=left;verticalAlign=middle;spacingTop=-1;spacingLeft=3;spacingRight=3;rotatable=0;labelPosition=right;points=[];portConstraint=eastwest;strokeColor=inherit;" vertex="1" parent="qJrFEpBAi07v0wmJlHiW-15">
          <mxGeometry y="110" width="320" height="8" as="geometry" />
        </mxCell>
        <mxCell id="qJrFEpBAi07v0wmJlHiW-18" value="+ Room(roomNumber: int, type: String, rate: double)&lt;div&gt;+ getRoomNumber(): int&lt;/div&gt;&lt;div&gt;+ getType(): String&lt;/div&gt;&lt;div&gt;+ getRate(): double&lt;/div&gt;&lt;div&gt;+ isAvailable(): boolean&lt;/div&gt;&lt;div&gt;+ setAvailable(avilable: boolean): void&lt;/div&gt;" style="text;strokeColor=none;fillColor=none;align=left;verticalAlign=top;spacingLeft=4;spacingRight=4;overflow=hidden;rotatable=0;points=[[0,0.5],[1,0.5]];portConstraint=eastwest;whiteSpace=wrap;html=1;" vertex="1" parent="qJrFEpBAi07v0wmJlHiW-15">
          <mxGeometry y="118" width="320" height="100" as="geometry" />
        </mxCell>
        <mxCell id="qJrFEpBAi07v0wmJlHiW-19" value="Reservation" style="swimlane;fontStyle=1;align=center;verticalAlign=top;childLayout=stackLayout;horizontal=1;startSize=26;horizontalStack=0;resizeParent=1;resizeParentMax=0;resizeLast=0;collapsible=1;marginBottom=0;whiteSpace=wrap;html=1;" vertex="1" parent="WIyWlLk6GJQsqaUBKTNV-1">
          <mxGeometry y="350" width="490" height="240" as="geometry" />
        </mxCell>
        <mxCell id="qJrFEpBAi07v0wmJlHiW-20" value="- reservationId: int&lt;div&gt;- room: Room&lt;/div&gt;&lt;div&gt;- customer: Customer&lt;/div&gt;&lt;div&gt;- reservationDate: Date&lt;/div&gt;" style="text;strokeColor=none;fillColor=none;align=left;verticalAlign=top;spacingLeft=4;spacingRight=4;overflow=hidden;rotatable=0;points=[[0,0.5],[1,0.5]];portConstraint=eastwest;whiteSpace=wrap;html=1;" vertex="1" parent="qJrFEpBAi07v0wmJlHiW-19">
          <mxGeometry y="26" width="490" height="114" as="geometry" />
        </mxCell>
        <mxCell id="qJrFEpBAi07v0wmJlHiW-21" value="" style="line;strokeWidth=1;fillColor=none;align=left;verticalAlign=middle;spacingTop=-1;spacingLeft=3;spacingRight=3;rotatable=0;labelPosition=right;points=[];portConstraint=eastwest;strokeColor=inherit;" vertex="1" parent="qJrFEpBAi07v0wmJlHiW-19">
          <mxGeometry y="140" width="490" height="8" as="geometry" />
        </mxCell>
        <mxCell id="qJrFEpBAi07v0wmJlHiW-22" value="+ Reservation(reseravtionId: int, room: Room, customer: Customer, reservationDate: Date&lt;div&gt;+ getRoom(): Room&lt;/div&gt;&lt;div&gt;+getCustomer(): Customer&lt;/div&gt;&lt;div&gt;+ getReservationDate(): Date&lt;/div&gt;" style="text;strokeColor=none;fillColor=none;align=left;verticalAlign=top;spacingLeft=4;spacingRight=4;overflow=hidden;rotatable=0;points=[[0,0.5],[1,0.5]];portConstraint=eastwest;whiteSpace=wrap;html=1;" vertex="1" parent="qJrFEpBAi07v0wmJlHiW-19">
          <mxGeometry y="148" width="490" height="92" as="geometry" />
        </mxCell>
        <mxCell id="qJrFEpBAi07v0wmJlHiW-23" value="Customer" style="swimlane;fontStyle=1;align=center;verticalAlign=top;childLayout=stackLayout;horizontal=1;startSize=26;horizontalStack=0;resizeParent=1;resizeParentMax=0;resizeLast=0;collapsible=1;marginBottom=0;whiteSpace=wrap;html=1;" vertex="1" parent="WIyWlLk6GJQsqaUBKTNV-1">
          <mxGeometry x="10" y="660" width="340" height="328" as="geometry" />
        </mxCell>
        <mxCell id="qJrFEpBAi07v0wmJlHiW-24" value="- email: String&lt;div&gt;- phoneNumber: String&lt;/div&gt;" style="text;strokeColor=none;fillColor=none;align=left;verticalAlign=top;spacingLeft=4;spacingRight=4;overflow=hidden;rotatable=0;points=[[0,0.5],[1,0.5]];portConstraint=eastwest;whiteSpace=wrap;html=1;" vertex="1" parent="qJrFEpBAi07v0wmJlHiW-23">
          <mxGeometry y="26" width="340" height="134" as="geometry" />
        </mxCell>
        <mxCell id="qJrFEpBAi07v0wmJlHiW-25" value="" style="line;strokeWidth=1;fillColor=none;align=left;verticalAlign=middle;spacingTop=-1;spacingLeft=3;spacingRight=3;rotatable=0;labelPosition=right;points=[];portConstraint=eastwest;strokeColor=inherit;" vertex="1" parent="qJrFEpBAi07v0wmJlHiW-23">
          <mxGeometry y="160" width="340" height="8" as="geometry" />
        </mxCell>
        <mxCell id="qJrFEpBAi07v0wmJlHiW-26" value="+ Customer(name: String, email: String, phoneNumber: String&lt;div&gt;+ getEmail(): String&lt;/div&gt;&lt;div&gt;+ getPhoneNumber(): String&amp;nbsp;&lt;/div&gt;" style="text;strokeColor=none;fillColor=none;align=left;verticalAlign=top;spacingLeft=4;spacingRight=4;overflow=hidden;rotatable=0;points=[[0,0.5],[1,0.5]];portConstraint=eastwest;whiteSpace=wrap;html=1;" vertex="1" parent="qJrFEpBAi07v0wmJlHiW-23">
          <mxGeometry y="168" width="340" height="160" as="geometry" />
        </mxCell>
        <mxCell id="qJrFEpBAi07v0wmJlHiW-27" value="Person" style="swimlane;fontStyle=1;align=center;verticalAlign=top;childLayout=stackLayout;horizontal=1;startSize=26;horizontalStack=0;resizeParent=1;resizeParentMax=0;resizeLast=0;collapsible=1;marginBottom=0;whiteSpace=wrap;html=1;" vertex="1" parent="WIyWlLk6GJQsqaUBKTNV-1">
          <mxGeometry x="500" y="420" width="160" height="170" as="geometry" />
        </mxCell>
        <mxCell id="qJrFEpBAi07v0wmJlHiW-28" value="- name: String" style="text;strokeColor=none;fillColor=none;align=left;verticalAlign=top;spacingLeft=4;spacingRight=4;overflow=hidden;rotatable=0;points=[[0,0.5],[1,0.5]];portConstraint=eastwest;whiteSpace=wrap;html=1;" vertex="1" parent="qJrFEpBAi07v0wmJlHiW-27">
          <mxGeometry y="26" width="160" height="26" as="geometry" />
        </mxCell>
        <mxCell id="qJrFEpBAi07v0wmJlHiW-29" value="" style="line;strokeWidth=1;fillColor=none;align=left;verticalAlign=middle;spacingTop=-1;spacingLeft=3;spacingRight=3;rotatable=0;labelPosition=right;points=[];portConstraint=eastwest;strokeColor=inherit;" vertex="1" parent="qJrFEpBAi07v0wmJlHiW-27">
          <mxGeometry y="52" width="160" height="8" as="geometry" />
        </mxCell>
        <mxCell id="qJrFEpBAi07v0wmJlHiW-30" value="+ Person(name: String)&lt;div&gt;+ getName(): String&lt;/div&gt;" style="text;strokeColor=none;fillColor=none;align=left;verticalAlign=top;spacingLeft=4;spacingRight=4;overflow=hidden;rotatable=0;points=[[0,0.5],[1,0.5]];portConstraint=eastwest;whiteSpace=wrap;html=1;" vertex="1" parent="qJrFEpBAi07v0wmJlHiW-27">
          <mxGeometry y="60" width="160" height="110" as="geometry" />
        </mxCell>
      </root>
    </mxGraphModel>
  </diagram>
</mxfile>
